[center][img]http://img811.imageshack.us/img811/4084/driveangrypic.jpg[/img]



[img]http://leetleech.org/images/48874973695367351744.png[/img]


Format/Info                      : Audio Video Interleave
File size                        : 1.08 GiB
Duration                         : 1h 43mn
Overall bit rate                 : 1 493 Kbps
Writing application              : VirtualDubMod 1.5.10.3 | www.virtualdub-fr.org || (build 2550/release)
Writing library                  : VirtualDubMod build 2550/release

Video
ID                               : 0
Format                           : MPEG-4 Visual
Format profile                   : Advanced Simple@L5
Format settings, BVOP            : Yes
Format settings, QPel            : No
Format settings, GMC             : No warppoints
Format settings, Matrix          : Custom
Codec ID                         : XVID
Codec ID/Hint                    : XviD
Duration                         : 1h 43mn
Bit rate                         : 1 369 Kbps
Width                            : 624 pixels
Height                           : 352 pixels
Display aspect ratio             : 16:9
Frame rate                       : 29.970 fps
Color space                      : YUV
Chroma subsampling               : 4:2:0
Bit depth                        : 8 bits
Scan type                        : Progressive
Bits/(Pixel*Frame)               : 0.208
Stream size                      : 1 015 MiB (92%)
Writing library                  : XviD 1.2.1 (UTC 2008-12-04)

Audio
ID                               : 1
Format                           : MPEG Audio
Format version                   : Version 1
Format profile                   : Layer 3
Mode                             : Joint stereo
Mode extension                   : MS Stereo
Codec ID                         : 55
Codec ID/Hint                    : MP3
Duration                         : 1h 43mn
Bit rate mode                    : Constant
Bit rate                         : 112 Kbps
Channel(s)                       : 2 channels
Sampling rate                    : 44.1 KHz
Bit depth                        : 16 bits
Stream size                      : 83.1 MiB (8%)
Alignment                        : Split accross interleaves
Interleave, duration             : 33 ms (1.00 video frame)
Interleave, preload duration     : 500 ms
Writing library                  : LAME3.98.2




[url]http://www.imdb.com/title/tt1502404/[/url]




[IMG]http://leetleech.org/images/89524873606771859129.png[/IMG]


Users: 6.1/10 (5,700 votes) 65 reviews | Critics: 183 reviews Metascore: 44/100 (based on 21 reviews from Metacritic.com)

A vengeful father escapes from hell and chases after the men who killed his daughter and kidnapped his granddaughter.
Director:
Patrick Lussier
Writers:
Todd Farmer, Patrick Lussier
Stars:
Nicolas Cage, Amber Heard and William Fichtner 



[img]http://leetleech.org/images/95521316153253938506.png[/img]




[img]http://img194.imageshack.us/img194/5025/vlcsnap2011050709h48m12.png[/img]

[img]http://img846.imageshack.us/img846/5474/vlcsnap2011050709h48m22.png[/img]

[img]http://img696.imageshack.us/img696/4507/vlcsnap2011050709h47m35.png[/img]

[img]http://img847.imageshack.us/img847/7880/vlcsnap2011050709h45m40.png[/img]


Source used 

IFLiX ................ Thanks 

Denoised ,smoother then sharpened the lowered saturation and slight rgb colour change ,upped the contrast a touch too

Enjoy !


Greetz to Imagine ,Flawl3ss,DiLLoN,BDK,NOiR,TOXiCiNK,THC,Ez,Rx,Boobyblue,TaRiQ786,LKRG





[img]http://img411.imageshack.us/img411/6898/sig1n.jpg[/img]












[/center]